{"title":"Filmes_que_marcaram_epoca_-_Clockwork_Orange.avi","magnet":"magnet:?xt=urn:btih:182199e9fb440c2f937f01206d012cf4808dcbd2&dn=Filmes_que_marcaram_epoca_-_Clockwork_Orange.avi&tr=udp%3A%2F%2Ftracker.leechers-paradise.org%3A6969&tr=udp%3A%2F%2Fzer0day.ch%3A1337&tr=udp%3A%2F%2Fopen.demonii.com%3A1337&tr=udp%3A%2F%2Ftracker.coppersurfer.tk%3A6969&tr=udp%3A%2F%2Fexodus.desync.com%3A6969","uploader":"cali8910","categoryP":"video","categoryS":"hd___tv_shows","size":"448994636","seeders":"1","leechers":"0","description":"Format                      : AVI\r\nFormat/Info                 : Audio Video Interleave\r\nFile size                   : 428 MiB\r\nDuration                    : 372 h\r\nOverall bit rate            : 2 676 b/s\r\n\r\nVideo\r\nID                          : 0\r\nFormat                      : AVC\r\nFormat/Info                 : Advanced Video Codec\r\nFormat profile              : <a href=\"/cdn-cgi/l/email-protection\" class=\"__cf_email__\" data-cfemail=\"d991b0beb19995ecf7e8\">[email&#xA0;protected]</a>\r\nFormat settings             : CABAC / 16 Ref Frames\r\nFormat settings, CABAC      : Yes\r\nFormat settings, RefFrames  : 16 frames\r\nCodec ID                    : AVC1\r\nDuration                    : 52 min 17 s\r\nBit rate                    : 1 000 kb/s\r\nWidth                       : 1 920 pixels\r\nHeight                      : 1 080 pixels\r\nDisplay aspect ratio        : 16:9\r\nFrame rate                  : 30.000 FPS\r\nColor space                 : YUV\r\nChroma subsampling          : 4:2:0\r\nBit depth                   : 8 bits\r\nScan type                   : Progressive\r\nBits/(Pixel*Frame)          : 0.016\r\nStream size                 : 362 MiB (85%)\r\nWriting library             : x264 core 142 r2479 dd79a61\r\nColor range                 : Limited\r\nColor primaries             : BT.709\r\nTransfer characteristics    : BT.709\r\nMatrix coefficients         : BT.709\r\n\r\nAudio\r\nID                          : 1\r\nFormat                      : AAC\r\nFormat/Info                 : Advanced Audio Codec\r\nFormat profile              : LC\r\nCodec ID                    : FF-2\r\nDuration                    : 372 h\r\nSource duration             : 52 min 17 s\r\nBit rate                    : 160 kb/s\r\nChannel(s)                  : 2 channels\r\nChannel positions           : Front: L R\r\nSampling rate               : 48.0 kHz\r\nFrame rate                  : 46.875 FPS (1024 SPF)\r\nCompression mode            : Lossy\r\nStream size                 : 60.0 MiB (14%)\r\nAlignment                   : Split accross interleaves\r\nInterleave, duration        : 21  ms (0.64 video frame)","last_updated":"2018-02-03T12:08:44.614Z","parsed":{"xt":"urn:btih:182199e9fb440c2f937f01206d012cf4808dcbd2","dn":"Filmes_que_marcaram_epoca_-_Clockwork_Orange.avi","tr":["udp://exodus.desync.com:6969","udp://open.demonii.com:1337","udp://tracker.coppersurfer.tk:6969","udp://tracker.leechers-paradise.org:6969","udp://zer0day.ch:1337"],"infoHash":"182199e9fb440c2f937f01206d012cf4808dcbd2","infoHashBuffer":{"type":"Buffer","data":[24,33,153,233,251,68,12,47,147,127,1,32,109,1,44,244,128,141,203,210]},"name":"Filmes_que_marcaram_epoca_-_Clockwork_Orange.avi","announce":["udp://exodus.desync.com:6969","udp://open.demonii.com:1337","udp://tracker.coppersurfer.tk:6969","udp://tracker.leechers-paradise.org:6969","udp://zer0day.ch:1337"],"urlList":[]}}